<?xml version="1.0" encoding="UTF-8"?>
<svg xmlns="http://www.w3.org/2000/svg" xmlns:xlink="http://www.w3.org/1999/xlink" width="200pt" height="200pt" viewBox="0 0 200 200" version="1.1">
<g id="surface1">
<path style=" stroke:none;fill-rule:nonzero;fill:rgb(13.725281%,12.156677%,12.548828%);fill-opacity:1;" d="M 74.960938 91.84375 C 73.621094 92.953125 72.222656 93.503906 70.726563 93.503906 C 68.480469 93.503906 67.210938 92.039063 67.210938 89.46875 L 67.210938 89.335938 L 76.847656 89.335938 C 76.847656 89.042969 76.847656 88.6875 76.847656 88.328125 C 76.847656 84.84375 76.164063 82.597656 74.632813 81.03125 C 73.558594 79.925781 71.734375 79.273438 69.8125 79.273438 C 67.597656 79.273438 65.9375 79.992188 64.570313 81.519531 C 63.105469 83.148438 62.488281 85.136719 62.488281 88.132813 C 62.488281 93.375 65.578125 96.761719 70.367188 96.761719 C 72.710938 96.761719 74.730469 96.011719 76.652344 94.449219 Z M 67.273438 86.144531 L 67.273438 86.082031 C 67.273438 83.769531 68.21875 82.464844 69.878906 82.464844 C 70.757813 82.464844 71.378906 82.792969 71.800781 83.441406 C 72.191406 84.0625 72.320313 84.714844 72.320313 85.949219 L 72.320313 86.144531 L 67.273438 86.144531 "/>
<path style=" stroke:none;fill-rule:nonzero;fill:rgb(13.725281%,12.156677%,12.548828%);fill-opacity:1;" d="M 87.871094 82.628906 L 85.070313 82.628906 L 85.070313 90.996094 C 85.070313 93.113281 85.460938 93.667969 86.960938 93.667969 C 87.351563 93.667969 87.742188 93.570313 88.523438 93.34375 L 89.078125 95.945313 C 87.808594 96.46875 86.667969 96.695313 85.527344 96.695313 C 83.3125 96.695313 81.554688 95.71875 81.035156 94.253906 C 80.773438 93.535156 80.742188 93.210938 80.742188 91.683594 L 80.742188 82.628906 L 79.082031 82.628906 L 79.082031 79.632813 L 80.742188 79.632813 C 80.742188 78.003906 80.742188 76.929688 80.902344 75.691406 L 85.332031 74.585938 C 85.167969 76.117188 85.070313 77.941406 85.070313 79.632813 L 88.980469 79.632813 L 87.871094 82.628906 "/>
<path style=" stroke:none;fill-rule:nonzero;fill:rgb(13.725281%,12.156677%,12.548828%);fill-opacity:1;" d="M 97.445313 73.675781 L 97.445313 92.527344 L 105.554688 92.527344 L 104.738281 96.304688 L 92.789063 96.304688 L 92.789063 73.675781 L 97.445313 73.675781 "/>
<path style=" stroke:none;fill-rule:nonzero;fill:rgb(13.725281%,12.156677%,12.548828%);fill-opacity:1;" d="M 112.945313 75.039063 C 112.945313 76.539063 111.742188 77.742188 110.242188 77.742188 C 108.777344 77.742188 107.574219 76.539063 107.574219 75.039063 C 107.574219 73.542969 108.8125 72.339844 110.3125 72.339844 C 111.773438 72.339844 112.945313 73.542969 112.945313 75.039063 Z M 112.425781 79.242188 L 112.425781 96.304688 L 108.0625 96.304688 L 108.0625 79.925781 L 112.425781 79.242188 "/>
<path style=" stroke:none;fill-rule:nonzero;fill:rgb(13.725281%,12.156677%,12.548828%);fill-opacity:1;" d="M 121.265625 72.175781 L 116.804688 73.21875 C 117.03125 74.164063 117.097656 75.269531 117.097656 77.320313 L 117.097656 92.753906 C 117.097656 95.066406 117 95.554688 116.675781 96.304688 L 120.582031 96.304688 C 120.875 95.851563 120.90625 95.6875 121.035156 95.101563 C 121.980469 96.140625 123.121094 96.632813 124.75 96.632813 C 126.117188 96.632813 127.257813 96.238281 128.394531 95.328125 C 130.445313 93.699219 131.488281 91.0625 131.488281 87.675781 C 131.488281 82.464844 128.949219 79.210938 124.878906 79.210938 C 123.347656 79.210938 122.175781 79.632813 121.328125 80.542969 C 121.394531 80.285156 121.429688 79.566406 121.429688 79.078125 L 121.429688 75.140625 C 121.429688 74 121.394531 73.316406 121.265625 72.175781 Z M 121.492188 84.160156 C 122.046875 83.539063 122.828125 82.824219 123.96875 82.824219 C 125.109375 82.824219 126.019531 83.507813 126.34375 84.941406 C 126.507813 85.65625 126.539063 86.277344 126.539063 87.773438 C 126.539063 89.824219 126.441406 90.703125 126.050781 91.617188 C 125.695313 92.496094 125.007813 92.921875 123.933594 92.921875 C 122.765625 92.921875 122.078125 92.363281 121.492188 91.84375 L 121.492188 84.160156 "/>
<path style=" stroke:none;fill-rule:nonzero;fill:rgb(13.725281%,12.156677%,12.548828%);fill-opacity:1;" d="M 138.007813 79.242188 C 138.398438 79.925781 138.625 80.675781 138.691406 81.617188 C 139.308594 80.773438 140.351563 79.859375 141.164063 79.503906 C 141.523438 79.339844 142.109375 79.242188 142.597656 79.242188 C 143.25 79.242188 143.539063 79.308594 144.226563 79.601563 L 143.019531 83.441406 C 142.597656 83.214844 142.242188 83.117188 141.753906 83.117188 C 140.773438 83.117188 139.894531 83.574219 139.082031 84.519531 L 139.082031 96.304688 L 134.71875 96.304688 L 134.71875 85.167969 C 134.71875 82.921875 134.457031 81.230469 134.101563 80.285156 L 138.007813 79.242188 "/>
<path style=" stroke:none;fill-rule:nonzero;fill:rgb(13.725281%,12.156677%,12.548828%);fill-opacity:1;" d="M 145.890625 81.617188 L 147.746094 84.742188 C 149.535156 83.539063 151.164063 82.855469 152.566406 82.855469 C 154.164063 82.855469 154.519531 83.472656 154.519531 85.332031 L 154.519531 86.015625 C 154.164063 85.980469 153.867188 85.980469 153.542969 85.980469 C 148.234375 85.980469 145.53125 87.804688 145.53125 91.714844 C 145.53125 95.035156 147.554688 96.921875 151.261719 96.921875 C 152.632813 96.921875 153.804688 96.597656 154.617188 96.011719 C 154.941406 95.78125 155.300781 95.460938 155.628906 95.132813 C 156.050781 95.980469 156.960938 96.726563 157.972656 97.152344 L 160.285156 94.480469 C 159.015625 93.535156 158.722656 92.851563 158.722656 91.0625 C 158.722656 90.964844 158.722656 90.867188 158.722656 90.769531 L 158.820313 85.167969 C 158.851563 83.378906 158.753906 82.855469 158.523438 82.171875 C 157.875 80.316406 155.953125 79.273438 153.152344 79.273438 C 151.621094 79.273438 150.222656 79.566406 148.59375 80.253906 C 147.421875 80.738281 146.769531 81.0625 145.890625 81.617188 Z M 154.453125 89.011719 L 154.390625 92.59375 C 153.738281 93.308594 152.925781 93.734375 152.113281 93.734375 C 151.003906 93.734375 150.1875 92.851563 150.1875 91.550781 C 150.1875 89.5625 151.230469 89.011719 154.261719 89.011719 L 154.453125 89.011719 "/>
<path style=" stroke:none;fill-rule:nonzero;fill:rgb(13.725281%,12.156677%,12.548828%);fill-opacity:1;" d="M 166.429688 79.242188 C 166.820313 79.925781 167.046875 80.675781 167.113281 81.617188 C 167.730469 80.773438 168.773438 79.859375 169.589844 79.503906 C 169.945313 79.339844 170.53125 79.242188 171.019531 79.242188 C 171.671875 79.242188 171.964844 79.308594 172.648438 79.601563 L 171.441406 83.441406 C 171.019531 83.214844 170.664063 83.117188 170.175781 83.117188 C 169.195313 83.117188 168.316406 83.574219 167.503906 84.519531 L 167.503906 96.304688 L 163.140625 96.304688 L 163.140625 85.167969 C 163.140625 82.921875 162.878906 81.230469 162.519531 80.285156 L 166.429688 79.242188 "/>
<path style=" stroke:none;fill-rule:nonzero;fill:rgb(13.725281%,12.156677%,12.548828%);fill-opacity:1;" d="M 178.492188 79.371094 L 181.390625 89.109375 C 181.683594 90.117188 182.269531 92.558594 182.269531 92.558594 C 182.269531 92.558594 182.597656 90.703125 182.789063 89.890625 C 182.921875 89.335938 183.183594 88.359375 183.441406 87.578125 L 185.949219 79.632813 L 190.539063 79.632813 L 184.484375 96.566406 C 183.34375 99.789063 182.496094 101.1875 181.292969 102.066406 C 180.183594 102.882813 178.753906 103.402344 177.257813 103.597656 L 175.757813 100.734375 C 176.699219 100.472656 177.808594 100.082031 178.460938 99.625 C 178.949219 99.269531 179.339844 98.8125 179.699219 98.257813 C 180.121094 97.574219 180.25 97.28125 180.640625 96.304688 L 179.535156 96.304688 C 179.015625 94.742188 178.136719 92.136719 177.972656 91.617188 L 174.03125 79.894531 L 178.492188 79.371094 "/>
<path style=" stroke:none;fill-rule:nonzero;fill:rgb(13.725281%,12.156677%,12.548828%);fill-opacity:1;" d="M 48.695313 73.664063 L 53.027344 82.722656 C 54.171875 85.132813 55.050781 87.511719 55.503906 89.140625 C 55.34375 87.378906 55.179688 84.480469 55.148438 82.917969 L 55.050781 73.664063 L 59.382813 73.664063 L 59.382813 96.308594 L 54.625 96.308594 L 50.75 87.640625 C 49.480469 84.804688 48.109375 81.613281 47.6875 80.214844 C 47.851563 82.070313 47.882813 84.742188 47.914063 86.632813 L 48.046875 96.308594 L 43.648438 96.308594 L 43.648438 73.664063 L 48.695313 73.664063 "/>
<path style=" stroke:none;fill-rule:nonzero;fill:rgb(13.725281%,12.156677%,12.548828%);fill-opacity:1;" d="M 194.574219 76.570313 C 194.574219 76.734375 194.519531 76.871094 194.4375 76.953125 C 194.335938 77.042969 194.199219 77.085938 193.945313 77.085938 L 193.667969 77.085938 L 193.667969 76.097656 L 193.964844 76.097656 C 194.113281 76.097656 194.230469 76.117188 194.3125 76.152344 C 194.464844 76.214844 194.574219 76.371094 194.574219 76.570313 Z M 195.128906 78.605469 C 195.074219 78.515625 194.84375 78.148438 194.71875 77.953125 C 194.621094 77.804688 194.539063 77.679688 194.480469 77.605469 C 194.429688 77.535156 194.359375 77.445313 194.230469 77.34375 C 194.703125 77.359375 194.992188 77.003906 194.992188 76.5625 C 194.992188 76.289063 194.871094 76.097656 194.738281 75.980469 C 194.601563 75.851563 194.402344 75.773438 194.066406 75.773438 L 193.273438 75.773438 L 193.273438 78.605469 L 193.667969 78.605469 L 193.667969 77.351563 C 193.785156 77.359375 193.847656 77.398438 193.921875 77.480469 C 194.128906 77.707031 194.199219 77.824219 194.414063 78.1875 C 194.527344 78.378906 194.566406 78.449219 194.648438 78.605469 Z M 191.511719 77.207031 C 191.511719 78.660156 192.667969 79.757813 194.058594 79.757813 C 195.445313 79.757813 196.609375 78.660156 196.609375 77.207031 C 196.609375 75.753906 195.445313 74.65625 194.058594 74.65625 C 192.667969 74.65625 191.511719 75.753906 191.511719 77.207031 Z M 191.960938 77.207031 C 191.960938 75.972656 192.890625 75.027344 194.058594 75.027344 C 195.226563 75.027344 196.15625 75.972656 196.15625 77.207031 C 196.15625 78.441406 195.226563 79.386719 194.058594 79.386719 C 192.890625 79.386719 191.960938 78.441406 191.960938 77.207031 "/>
<path style=" stroke:none;fill-rule:nonzero;fill:rgb(24.705505%,60.392761%,23.529053%);fill-opacity:1;" d="M 43.648438 124.007813 L 64.832031 124.007813 L 64.832031 102.824219 L 43.648438 102.824219 Z M 43.648438 124.007813 "/>
<path style=" stroke:none;fill-rule:nonzero;fill:rgb(96.078491%,50.98114%,12.156677%);fill-opacity:1;" d="M 5 96.308594 L 35.960938 96.308594 L 35.960938 65.347656 L 5 65.347656 Z M 5 96.308594 "/>
<path style=" stroke:none;fill-rule:nonzero;fill:rgb(66.275024%,19.215393%,43.528748%);fill-opacity:1;" d="M 24.554688 114.230469 L 35.960938 114.230469 L 35.960938 102.824219 L 24.554688 102.824219 Z M 24.554688 114.230469 "/>
</g>
</svg>
